<svg width="192" height="192" viewBox="0 0 192 192" fill="none" xmlns="http://www.w3.org/2000/svg">
<g clip-path="url(#clip0_1889_15193)">
<rect width="192" height="192" rx="96" fill="#0A0C16"/>
<path d="M104.23 72.309C104.166 72.3083 104.102 72.3079 104.038 72.3079C95.1264 72.3079 87.9019 79.5323 87.9019 88.444C87.9019 88.5081 87.9023 88.5721 87.903 88.6361H87.9019V113.993H69.0761V98.4329H50L104.23 32V72.309Z" fill="#22A779"/>
<path d="M111.725 53.8672C119.698 53.8672 127.345 57.0346 132.983 62.6725C138.621 68.3104 141.789 75.957 141.789 83.9302C141.789 91.7094 138.773 99.1773 133.39 104.772C135.99 107.475 138.064 110.642 139.5 114.11C140.974 117.669 141.75 121.386 141.787 125.231H141.789V160H123.347V125.519C123.347 123.999 122.997 122.591 122.416 121.187C121.834 119.783 120.982 118.508 119.907 117.433C118.833 116.359 117.557 115.506 116.153 114.925C114.783 114.357 113.409 114.01 111.932 113.994V114.057H89.3945V95.5656H111.725V95.552C114.815 95.552 117.779 94.3552 119.965 92.1699C122.15 89.9846 123.378 87.0207 123.378 83.9302C123.378 80.8397 122.15 77.8757 119.965 75.6904C117.779 73.5051 114.815 72.3084 111.725 72.3084V72.2584H105.768V53.9594H111.725V53.8672Z" fill="#F5F2EB"/>
</g>
<defs>
<clipPath id="clip0_1889_15193">
<rect width="192" height="192" fill="white"/>
</clipPath>
</defs>
</svg>
